<svg xmlns="http://www.w3.org/2000/svg">
  
  <symbol id="av-logo" viewBox="0 0 360 81.822" preserveAspectRatio="xMidYMid slice">
    <path stroke="none" d="M37.83 80.46c-.53.1-1.36.24-2.5.4-1.13.13-2.47.27-4 .4-1.53.15-3.25.28-5.16.4-1.9.1-3.88.16-5.94.16-4.13 0-7.5-.38-10.12-1.14-2.6-.77-4.67-1.78-6.18-3.04-1.5-1.28-2.53-2.74-3.1-4.4C.28 71.55 0 69.85 0 68.1c0-2.3.33-4.33 1-6.08.65-1.74 1.73-3.2 3.24-4.4 1.5-1.18 3.48-2.08 5.9-2.67 2.45-.58 5.4-.88 8.9-.88 2 0 3.9.07 5.7.2 1.8.15 3.15.28 4.05.4 0-1.98-.3-3.6-.92-4.92-.6-1.3-1.44-2.3-2.5-3.05-1.06-.72-2.33-1.23-3.8-1.5-1.5-.3-3.13-.44-4.93-.44-3 0-5.43.37-7.25 1.1-1.83.73-3.03 1.35-3.6 1.86-.33-.28-.77-.82-1.32-1.6-.56-.8-.83-1.75-.83-2.88 0-.8.2-1.57.6-2.33.4-.76 1.1-1.42 2.1-2.02 1-.6 2.35-1.06 4.04-1.4 1.68-.33 3.82-.5 6.4-.5 3.13 0 5.97.32 8.54.97 2.56.65 4.77 1.68 6.62 3.1 1.85 1.4 3.3 3.26 4.32 5.57 1.03 2.32 1.55 5.1 1.55 8.38v25.46zm-8.96-18.78c-.53-.1-1.52-.28-2.98-.5-1.46-.23-3.64-.34-6.55-.34-3.6 0-6.2.57-7.85 1.73-1.64 1.15-2.46 2.98-2.46 5.46 0 1.02.17 1.94.5 2.8.36.83.96 1.55 1.8 2.15.85.6 2 1.03 3.45 1.35 1.45.3 3.26.46 5.43.46 2.43 0 4.36-.1 5.8-.3 1.42-.2 2.37-.35 2.84-.46V61.68zM47.1 53.3c0-5.2 1.5-9.2 4.5-12.05 2.98-2.85 7.1-4.27 12.4-4.27 3.34 0 6.05.5 8.13 1.48 2.1.98 3.14 2.5 3.14 4.53 0 .95-.25 1.86-.76 2.77-.5.9-.9 1.48-1.22 1.7-.9-.45-2-.88-3.33-1.27-1.32-.4-2.83-.6-4.52-.6-6.18 0-9.28 3.5-9.28 10.5v24.53H47.1V53.3zM113.58 77.5c-.43.3-1.1.7-2 1.2-.88.5-2 .97-3.36 1.42-1.34.45-2.9.86-4.68 1.2-1.77.33-3.7.5-5.83.5-2.95 0-5.7-.48-8.28-1.44-2.56-.95-4.8-2.38-6.74-4.26-1.93-1.9-3.45-4.22-4.56-6.94-1.1-2.75-1.67-5.88-1.67-9.45 0-3.38.54-6.47 1.63-9.26 1.1-2.8 2.6-5.2 4.52-7.2 1.93-2 4.2-3.55 6.83-4.64 2.6-1.1 5.48-1.65 8.6-1.65 2.75 0 5.18.4 7.3 1.13 2.1.78 3.9 1.8 5.35 3.07 1.45 1.27 2.55 2.75 3.3 4.43.73 1.7 1.1 3.5 1.1 5.42 0 1.98-.34 3.77-1.03 5.38-.7 1.6-1.9 2.98-3.65 4.14-1.74 1.16-4.1 2.06-7.06 2.7-2.96.67-6.72.98-11.26.98-1.06 0-2.05-.02-2.97-.05-.92-.02-1.9-.06-2.97-.12.42 2.88 1.73 5.2 3.92 7 2.2 1.76 5.33 2.64 9.4 2.64 1.38 0 2.65-.12 3.8-.34 1.17-.23 2.22-.5 3.14-.84.9-.35 1.7-.68 2.37-1.02.66-.34 1.15-.6 1.47-.77l3.34 6.78zM85.72 57.47c1.22.05 2.38.07 3.5.07 1.1 0 2.2 0 3.33 0 2.9 0 5.25-.2 7.06-.6 1.8-.38 3.2-.9 4.2-1.5 1-.63 1.67-1.34 1.98-2.12.32-.8.48-1.6.48-2.45 0-2.14-.8-3.75-2.42-4.8-1.6-1.1-3.6-1.63-6-1.63-1.94 0-3.66.37-5.14 1.1-1.5.74-2.73 1.7-3.73 2.93-1.02 1.2-1.8 2.6-2.35 4.18-.56 1.58-.87 3.2-.92 4.83zM157.68 80.46c-.54.1-1.37.24-2.5.4-1.14.13-2.48.27-4 .4-1.54.15-3.26.28-5.16.4-1.9.1-3.9.16-5.95.16-4.13 0-7.5-.38-10.1-1.14-2.64-.77-4.7-1.78-6.2-3.04-1.5-1.28-2.54-2.74-3.1-4.4-.55-1.67-.83-3.38-.83-5.13 0-2.3.33-4.33 1-6.08.65-1.74 1.74-3.2 3.24-4.4 1.5-1.18 3.48-2.08 5.9-2.66 2.45-.6 5.4-.88 8.9-.88 2 0 3.9.06 5.7.2 1.8.14 3.15.27 4.05.4 0-2-.3-3.62-.9-4.93-.62-1.3-1.45-2.3-2.5-3.04-1.07-.72-2.34-1.23-3.8-1.5-1.5-.3-3.14-.44-4.94-.44-3.02 0-5.44.37-7.26 1.1-1.83.74-3.03 1.35-3.6 1.86-.33-.28-.76-.82-1.32-1.6-.56-.8-.83-1.75-.83-2.88 0-.8.2-1.56.58-2.33.4-.76 1.1-1.42 2.1-2.02 1-.6 2.36-1.06 4.05-1.4 1.7-.33 3.83-.5 6.42-.5 3.13 0 5.96.32 8.53.97 2.56.65 4.77 1.68 6.63 3.1 1.85 1.4 3.3 3.26 4.33 5.57 1.03 2.32 1.54 5.1 1.54 8.38v25.46zm-8.97-18.78c-.52-.1-1.5-.28-2.96-.5-1.46-.23-3.64-.34-6.55-.34-3.6 0-6.22.57-7.86 1.73-1.64 1.15-2.46 2.98-2.46 5.46 0 1.02.17 1.94.52 2.8.34.83.93 1.55 1.78 2.15.85.6 2 1.03 3.45 1.35 1.45.3 3.26.46 5.44.46 2.42 0 4.35-.1 5.78-.3 1.43-.2 2.38-.35 2.86-.46V61.68zM179.72 80.64c-2.48-4.9-4.76-9.52-6.82-13.84-2.07-4.3-3.84-8.16-5.32-11.55-1.47-3.4-2.6-6.2-3.4-8.45-.8-2.26-1.2-3.73-1.2-4.4 0-1.2.38-2.2 1.1-3 .76-.82 1.9-1.24 3.43-1.24 1.12 0 2.03.1 2.74.34.72.24 1.13.4 1.23.5 1.06 3.06 2.2 6.13 3.4 9.27 1.23 3.13 2.43 6.1 3.62 8.9 1.18 2.77 2.3 5.32 3.32 7.6 1.04 2.3 1.9 4.16 2.58 5.63 1-2.03 2.1-4.43 3.25-7.2 1.17-2.76 2.28-5.5 3.37-8.2 1.1-2.7 2.07-5.17 2.93-7.4.88-2.23 1.5-3.86 1.88-4.87.52-1.4 1.16-2.52 1.9-3.33.73-.82 1.9-1.24 3.48-1.24 1.5 0 2.7.27 3.62.82.93.53 1.44.84 1.55.96-.32 1.2-.86 2.8-1.62 4.87-.77 2.06-1.7 4.36-2.78 6.9-1.08 2.54-2.25 5.2-3.5 7.95-1.23 2.77-2.46 5.46-3.68 8.1-1.23 2.6-2.37 5.04-3.46 7.3-1.1 2.27-2 4.12-2.74 5.6h-8.88zM212 42.65c0-1.58.43-2.73 1.27-3.44.84-.68 2.03-1.04 3.57-1.04.95 0 1.82.14 2.62.38.8.25 1.32.44 1.6.54v41.56H212v-38zM229.77 22.76c0-1.52.42-2.65 1.26-3.37.85-.75 2.04-1.12 3.57-1.12.96 0 1.83.13 2.62.38.8.25 1.32.44 1.6.55V43.5c1.3-1.8 3.13-3.34 5.46-4.6 2.33-1.26 5-1.9 8-1.9 2.92 0 5.6.55 8.06 1.65 2.46 1.1 4.6 2.65 6.43 4.65 1.82 2 3.25 4.37 4.28 7.1 1.03 2.74 1.54 5.75 1.54 9.02 0 3.2-.54 6.2-1.6 8.97-1.04 2.76-2.53 5.13-4.43 7.1-1.9 1.98-4.16 3.54-6.78 4.65-2.63 1.13-5.5 1.7-8.62 1.7-3.12 0-5.98-.5-8.6-1.53-2.63-1.02-4.87-2.55-6.8-4.57-1.9-2.04-3.37-4.57-4.43-7.62-1.06-3.03-1.6-6.62-1.6-10.73v-34.6zm21.25 50.35c1.8 0 3.45-.35 4.96-1.05 1.5-.7 2.8-1.67 3.88-2.87 1.1-1.22 1.93-2.65 2.5-4.32.6-1.66.88-3.48.88-5.46 0-1.97-.3-3.8-.87-5.5-.58-1.7-1.42-3.14-2.5-4.35-1.08-1.22-2.38-2.18-3.9-2.9-1.5-.7-3.15-1.05-4.95-1.05-1.85 0-3.52.36-5.03 1.06-1.52.7-2.8 1.68-3.86 2.93-1.05 1.23-1.9 2.7-2.5 4.4-.6 1.68-.9 3.48-.9 5.4 0 2.03.3 3.9.9 5.58.6 1.7 1.46 3.13 2.54 4.32 1.08 1.18 2.38 2.1 3.9 2.8 1.5.67 3.14 1 4.94 1zM315.74 77.5c-.42.3-1.08.7-1.98 1.2-.9.5-2.02.97-3.37 1.42-1.36.45-2.92.86-4.68 1.2-1.78.33-3.72.5-5.84.5-2.96 0-5.72-.48-8.3-1.44-2.55-.95-4.8-2.38-6.73-4.26-1.93-1.9-3.45-4.22-4.55-6.94-1.12-2.75-1.67-5.88-1.67-9.45 0-3.38.54-6.47 1.62-9.26 1.08-2.8 2.6-5.2 4.52-7.2 1.93-2 4.2-3.55 6.82-4.64 2.6-1.1 5.48-1.65 8.6-1.65 2.75 0 5.18.4 7.3 1.13 2.1.78 3.9 1.8 5.35 3.07 1.45 1.27 2.55 2.75 3.28 4.43.75 1.7 1.12 3.5 1.12 5.42 0 1.98-.35 3.77-1.03 5.38-.7 1.6-1.9 2.98-3.65 4.14-1.74 1.16-4.1 2.06-7.05 2.7-2.97.67-6.73.98-11.27.98-1.06 0-2.05-.02-2.98-.05-.92-.02-1.9-.06-2.96-.12.43 2.88 1.73 5.2 3.93 7 2.2 1.76 5.32 2.64 9.4 2.64 1.37 0 2.64-.12 3.8-.34 1.16-.23 2.2-.5 3.14-.84.92-.35 1.7-.68 2.38-1.02.66-.34 1.15-.6 1.47-.77l3.32 6.78zM287.9 57.47c1.23.05 2.38.07 3.5.07 1.1 0 2.2 0 3.33 0 2.9 0 5.26-.2 7.05-.6 1.8-.38 3.2-.9 4.2-1.5 1-.63 1.67-1.34 2-2.12.3-.8.46-1.6.46-2.45 0-2.14-.8-3.75-2.42-4.8-1.6-1.1-3.6-1.63-5.98-1.63-1.96 0-3.68.37-5.16 1.1-1.48.74-2.72 1.7-3.73 2.93-1 1.2-1.78 2.6-2.33 4.18-.56 1.58-.86 3.2-.9 4.83zM325.02 70.06c.37.3 1.03.65 1.98 1.1.96.46 2.13.92 3.54 1.4 1.4.48 3 .88 4.8 1.22 1.8.35 3.75.5 5.86.5 2.75 0 5-.37 6.75-1.13 1.74-.77 2.6-2.08 2.6-3.94 0-1.56-.54-2.77-1.65-3.6-1.1-.8-3.1-1.38-5.95-1.72l-6.18-.76c-2.12-.23-4.06-.63-5.83-1.22-1.78-.6-3.3-1.4-4.57-2.42-1.27-1.02-2.25-2.26-2.97-3.76-.7-1.5-1.07-3.28-1.07-5.37 0-1.8.33-3.52 1-5.12.67-1.6 1.73-3.04 3.16-4.27 1.43-1.25 3.3-2.22 5.6-2.93 2.32-.7 5.12-1.05 8.4-1.05 5.5 0 9.76.64 12.8 1.95 3.05 1.3 4.57 2.98 4.57 5.08 0 .67-.13 1.27-.36 1.77-.23.5-.5.97-.8 1.36-.28.4-.58.72-.9.97-.32.26-.55.4-.7.48-.22-.24-.7-.6-1.4-1.08-.72-.46-1.68-.95-2.9-1.43s-2.66-.9-4.36-1.26c-1.7-.36-3.65-.55-5.86-.55-6.15 0-9.2 1.73-9.2 5.17 0 1.46.58 2.58 1.73 3.34 1.17.75 2.83 1.28 5 1.55l8.06 1.13c4.38.6 7.78 1.9 10.2 3.85 2.43 1.94 3.64 4.8 3.64 8.58 0 4.23-1.57 7.62-4.7 10.16-3.16 2.54-7.7 3.8-13.62 3.8-2.86 0-5.44-.22-7.77-.68-2.32-.44-4.34-.96-6.06-1.56-1.72-.6-3.1-1.17-4.16-1.74-1.06-.56-1.75-.98-2.07-1.26l3.42-6.52z"/>
    <path fill="none" stroke-width="6" stroke-linecap="round" d="M168.5 14.67V29.2M152.3 21.92v3.15M200.87 14.67V29.2M217.04 21.92v3.15"/>
    <path stroke="none" d="M191.3 10c0-5.53-2.97-10-6.62-10-3.66 0-6.62 4.47-6.62 10 0 .56.04 1.12.1 1.66h-.1l3.3 17.7 3.32 17.68 3.3-17.7 3.32-17.68h-.1c.06-.54.1-1.1.1-1.66z"/>
  </symbol>

  <symbol id="magnify" viewBox="0 0 256 256" preserveAspectRatio="xMidYMid slice">
    <ellipse ry="82" rx="82" cy="106" cx="106" stroke-width="24" fill="none" />
    <line y2="228" x2="228" y1="178" x1="178" stroke-width="30" stroke-linejoin="null" stroke-linecap="round"/>
  </symbol>

  <symbol id="pancake" viewBox="0 0 160 200" preserveAspectRatio="xMidYMid slice">
    <path d="M1,59L159,59L159,39L1,39z"/>
    <path d="M1,129L159,129L159,109L1,109z"/>
    <path d="M1,199L159,199L159,179L1,179z"/>
  </symbol>

  <symbol id="kebab-vert" viewBox="0 0 30 120" preserveAspectRatio="xMidYMid slice">
    <circle r="14" cx="15" cy="15"/>
    <circle r="14" cx="15" cy="60"/>
    <circle r="14" cx="15" cy="105"/>
  </symbol>

  <!-- shard -->
  <symbol id="arr-up" viewBox="0 0 24 24" preserveAspectRatio="xMidYMid slice">
    <path d="M12 0l8 9h-6v15h-4v-15h-6z"/>
  </symbol>

  <!-- shard -->
  <symbol id="arr-dn" viewBox="0 0 24 24" preserveAspectRatio="xMidYMid slice">
    <path d="M12 24l-8-9h6v-15h4v15h6z"/>
  </symbol>

</svg>